<?xml version="1.0" encoding="UTF-8"?><svg id="_レイヤー_2" xmlns="http://www.w3.org/2000/svg" viewBox="0 0 95.69 77.76"><defs><style>.cls-1{fill:#009add;stroke-width:0px;}</style></defs><g id="_レイヤー_1-2"><path class="cls-1" d="m48.78,68.46l22.6-1.49h.11c8.21,0,14.89-6.68,14.89-14.89s-6.58-14.86-14.98-14.89c-4.34-.01-7.55,1.65-10.05,4.51l-7.26-6.79c5-4.76,11.57-7.16,17.51-7.04,6.45.13,12.48,2.68,17,7.16,4.58,4.54,7.1,10.6,7.1,17.04,0,13.31-10.79,24.14-24.09,24.2l-33.44,1.48s6.14-2.79,10.61-9.31Z"/><path class="cls-1" d="m30.89,27.11c3.37-6.55,10.19-10.51,18.32-10.4,6.56.1,12.17,2.88,15.73,7.96,2.19-.74,6.08-1.16,10.47-.51-4.62-10.06-14.66-16.59-26.06-16.76-13.71-.2-25.4,7.62-28.78,20.28C8.7,29.47,0,40,0,52.07c0,13.35,10.86,24.2,24.2,24.2,8.38,0,14.66-2.75,22.14-11.49,6.94-8.1,10.44-14.95,14.72-21.84l-29.04,4.47,9.11,8.01c-4.89,7.55-9.84,11.53-16.93,11.53-8.21,0-14.89-6.68-14.89-14.89,0-4.76,2.6-9.86,6.22-12.41,5.74-4.06,10.29-3.07,12.66-3.16,0,0,.25-4.63,2.7-9.39Z"/><circle class="cls-1" cx="12.14" cy="18.51" r="4.93"/><circle class="cls-1" cx="21.06" cy="5.87" r="5.87"/></g></svg>