<svg xmlns="http://www.w3.org/2000/svg" xmlns:xlink="http://www.w3.org/1999/xlink" width="188.431" height="115.002" viewBox="0 0 188.431 115.002">
  <defs>
    <clipPath id="clip-path">
      <rect id="長方形_538" data-name="長方形 538" width="90.615" height="68.369" fill="none"/>
    </clipPath>
    <clipPath id="clip-path-3">
      <rect id="長方形_582" data-name="長方形 582" width="104.482" height="68.385" fill="none"/>
    </clipPath>
    <clipPath id="clip-path-4">
      <rect id="長方形_583" data-name="長方形 583" width="23.669" height="23.924" fill="none"/>
    </clipPath>
    <clipPath id="clip-path-5">
      <rect id="長方形_584" data-name="長方形 584" width="20.459" height="20.673" fill="none"/>
    </clipPath>
  </defs>
  <g id="グループ_7839" data-name="グループ 7839" transform="translate(-316.018 -3453.397)">
    <g id="グループ_6434" data-name="グループ 6434" transform="translate(413.133 3461.96)">
      <g id="グループ_6433" data-name="グループ 6433" clip-path="url(#clip-path)">
        <g id="グループ_6432" data-name="グループ 6432">
          <g id="グループ_6431" data-name="グループ 6431" clip-path="url(#clip-path)">
            <path id="パス_9428" data-name="パス 9428" d="M30.774,22.751l-1.28,1.28-5.717-5.717L9.529,32.571l5.708,5.708-1.28,1.28L.7,26.3,17.519,9.5Z" transform="translate(-0.702 -9.495)" fill="#008bca"/>
            <path id="パス_9429" data-name="パス 9429" d="M97.918,26.334,84.69,39.562l-1.28-1.28L89.09,32.6,74.843,18.344l-5.681,5.69-1.28-1.28L81.11,9.526Z" transform="translate(-7.303 -9.498)" fill="#9ed5eb"/>
            <path id="パス_9430" data-name="パス 9430" d="M74.982,19.306,89.23,33.562l-5.681,5.681-.4-.4,2.868-2.868L72.836,22.8l-2.868,2.868L69.3,25Z" transform="translate(-7.443 -10.46)" fill="#9ed5eb"/>
            <rect id="長方形_532" data-name="長方形 532" width="4.055" height="18.644" transform="translate(62.526 15.203) rotate(-45)" fill="#9ed5eb"/>
            <path id="パス_9431" data-name="パス 9431" d="M84.815,41.372l-2.236,2.245-.4-.4,2.236-2.245Z" transform="translate(-8.708 -12.589)" fill="#dfe2f2"/>
            <path id="パス_9432" data-name="パス 9432" d="M82.981,39.539l-2.236,2.245L67.561,28.6,69.8,26.356Z" transform="translate(-7.272 -11.152)" fill="#fff"/>
            <path id="パス_9433" data-name="パス 9433" d="M79.192,42.029l-2.336,2.326s-1.93,8.909-3.4,11.434a35.388,35.388,0,0,1-4.833,5.5L53.79,46.448a4.142,4.142,0,0,0-.55-.433l-1.488-1.488,4.094-3.084,2.263.153a3.364,3.364,0,0,0-.568-.289L54.656,40.19l5.383-5.383,5.969-5.96Z" transform="translate(-5.718 -11.397)" fill="#fff"/>
            <path id="パス_9434" data-name="パス 9434" d="M67.885,63.7a3.243,3.243,0,0,1-4.591,4.581l-.036-.036A3.232,3.232,0,0,1,58.6,72.318a3.223,3.223,0,0,1-5.283,3.354,3.233,3.233,0,0,1-5.41,3.138l-1.164-1.163a2.986,2.986,0,0,0,.37-.316l1.182-1.172a3.245,3.245,0,0,0-4.59-4.59l-1.173,1.181a3.064,3.064,0,0,0-.316.37l-.649-.649,1.8-1.8a3.242,3.242,0,0,0-4.589-4.581l-1.8,1.8-.451-.451,1.8-1.812a3.242,3.242,0,1,0-4.59-4.581l-1.8,1.8-.459-.46,2.092-2.083a3.245,3.245,0,0,0-4.59-4.59L26.9,57.8a.144.144,0,0,0-.036-.045c-1.253-1.253-2.271-3.616-3.029-6.006L23.05,49c-.648-2.57-.983-4.644-.983-4.644l-2.326-2.326L32.924,28.846,38.877,34.8h5.3a3.238,3.238,0,0,1,2.291.956l.991.992L43.683,39.6l-1.444,1.082a3.291,3.291,0,0,0-.622.6,3.5,3.5,0,0,0-.7,1.533L39.8,48.991a3.459,3.459,0,0,0,2.778,4.022,3.614,3.614,0,0,0,.621.054,3.454,3.454,0,0,0,3.219-2.227,3.186,3.186,0,0,0,.171-.6l.848-4.671.037-.18,1.135-.857,1.489,1.488a4.193,4.193,0,0,1,.549.433L65.477,61.29Z" transform="translate(-2.573 -11.397)" fill="#fff"/>
            <path id="パス_9435" data-name="パス 9435" d="M69.724,26.283l-2.236,2.245-.676-.676,2.245-2.236Z" transform="translate(-7.198 -11.08)" fill="#dfe2f2"/>
            <path id="パス_9436" data-name="パス 9436" d="M59.914,35.419,54.531,40.8l-.983-.379-3.067-3.066,2.11-1.587a3.47,3.47,0,0,1,2.3-.685Z" transform="translate(-5.593 -12.009)" fill="#fff"/>
            <path id="パス_9437" data-name="パス 9437" d="M58.031,42.833l-2.263-.153-4.094,3.084-.712-.712,3.616-3.625,2.886,1.118a3.364,3.364,0,0,1,.568.289" transform="translate(-5.64 -12.633)" fill="#fff"/>
            <path id="パス_9438" data-name="パス 9438" d="M54.119,41.05,50.5,44.675l-4.211-4.211,3.778-2.858,3.066,3.066Z" transform="translate(-5.182 -12.258)" fill="#fff"/>
            <path id="パス_9439" data-name="パス 9439" d="M51.536,46.158l-1.136.857-.036.18a3.216,3.216,0,0,1-.8-.5l1.262-1.253Z" transform="translate(-5.503 -13.028)" fill="#fff"/>
            <path id="パス_9440" data-name="パス 9440" d="M50.74,76.123a3.256,3.256,0,0,1,0,4.59l-1.182,1.172a2.985,2.985,0,0,1-.37.316l-4.527-4.527a3.063,3.063,0,0,1,.316-.37l1.173-1.181a3.255,3.255,0,0,1,4.59,0" transform="translate(-5.021 -15.95)" fill="#fff"/>
            <path id="パス_9441" data-name="パス 9441" d="M50.277,44.987,49.015,46.24c-.072-.063-.144-.126-.207-.189l-3.589-3.589H44a3.291,3.291,0,0,1,.622-.6l1.443-1.082Z" transform="translate(-4.957 -12.569)" fill="#fff"/>
            <path id="パス_9442" data-name="パス 9442" d="M49.988,47.332,49.141,52a3.325,3.325,0,0,1-.171.6l-3.228-2.326,3.445-3.445a3.216,3.216,0,0,0,.8.5" transform="translate(-5.127 -13.165)" fill="#fff"/>
            <path id="パス_9443" data-name="パス 9443" d="M44.591,77.946l4.527,4.527a3.154,3.154,0,0,1-1.921.64,3.246,3.246,0,0,1-2.606-5.167" transform="translate(-4.952 -16.222)" fill="#fff"/>
            <path id="パス_9444" data-name="パス 9444" d="M48.811,46.424l-3.446,3.445L48.594,52.2a3.455,3.455,0,0,1-3.219,2.227,3.614,3.614,0,0,1-.621-.054,3.459,3.459,0,0,1-2.778-4.022l1.119-6.168a3.5,3.5,0,0,1,.7-1.533h1.217L48.6,46.235c.063.063.135.126.208.189" transform="translate(-4.752 -12.753)" fill="#fff"/>
            <path id="パス_9445" data-name="パス 9445" d="M45.246,70.042a3.245,3.245,0,0,1,0,4.581l-1.8,1.8-4.582-4.581,1.8-1.8a3.238,3.238,0,0,1,4.59,0" transform="translate(-4.451 -15.352)" fill="#fff"/>
            <path id="パス_9446" data-name="パス 9446" d="M43.279,76.727l-.55.559a3.269,3.269,0,0,1-2.3.947A3.242,3.242,0,0,1,38.139,72.7l.558-.55Z" transform="translate(-4.287 -15.652)" fill="#fff"/>
            <path id="パス_9447" data-name="パス 9447" d="M39.664,64.452a3.244,3.244,0,0,1,0,4.581l-1.8,1.812-4.59-4.59,1.8-1.8a3.238,3.238,0,0,1,4.59,0" transform="translate(-3.902 -14.802)" fill="#fff"/>
            <path id="パス_9448" data-name="パス 9448" d="M37.7,71.146l-.55.541a3.237,3.237,0,0,1-2.3.956,3.2,3.2,0,0,1-2.29-.956,3.244,3.244,0,0,1,0-4.581l.55-.55Z" transform="translate(-3.739 -15.103)" fill="#fff"/>
            <path id="パス_9449" data-name="パス 9449" d="M34.355,58.543a3.256,3.256,0,0,1,0,4.59l-2.093,2.083-.4-.4c-.036-.036-.063-.081-.1-.117-.946-.947-2.362-2.354-4.085-4.076l2.084-2.083a3.255,3.255,0,0,1,4.59,0" transform="translate(-3.353 -14.222)" fill="#fff"/>
            <rect id="長方形_533" data-name="長方形 533" width="0.956" height="3.163" transform="translate(28.116 15.212) rotate(-45)" fill="#dfe2f2"/>
            <rect id="長方形_534" data-name="長方形 534" width="18.644" height="3.163" transform="translate(14.933 28.396) rotate(-45)" fill="#fff"/>
            <path id="パス_9450" data-name="パス 9450" d="M32.129,65.546l-.271.271a3.242,3.242,0,1,1-4.58-4.59l.271-.271c1.722,1.722,3.138,3.129,4.084,4.076.036.036.063.081.1.117Z" transform="translate(-3.219 -14.552)" fill="#fff"/>
            <path id="パス_9451" data-name="パス 9451" d="M30.456,24.992l-.676.676L26.9,22.792,13.72,35.976,16.6,38.852l-.4.388-5.708-5.708L24.739,19.276Z" transform="translate(-1.664 -10.457)" fill="#008bca"/>
            <rect id="長方形_535" data-name="長方形 535" width="18.644" height="4.068" transform="translate(12.056 25.519) rotate(-45)" fill="#008bca"/>
            <rect id="長方形_536" data-name="長方形 536" width="0.558" height="3.166" transform="translate(14.536 28.788) rotate(-45)" fill="#dfe2f2"/>
          </g>
        </g>
      </g>
    </g>
    <path id="パス_9452" data-name="パス 9452" d="M40.961,35.446h5.3a3.236,3.236,0,0,1,2.29.956l.992.992" transform="translate(408.475 3449.914)" fill="none" stroke="#1a1311" stroke-linecap="round" stroke-linejoin="round" stroke-width="1.984"/>
    <path id="パス_9453" data-name="パス 9453" d="M81.03,43.466l-2.336,2.326s-1.93,8.909-3.4,11.434a35.388,35.388,0,0,1-4.833,5.5" transform="translate(405.576 3449.126)" fill="none" stroke="#1a1311" stroke-linecap="round" stroke-linejoin="round" stroke-width="1.984"/>
    <line id="線_4" data-name="線 4" y1="5.96" x2="5.969" transform="translate(467.453 3479.408)" fill="none" stroke="#1a1311" stroke-linecap="round" stroke-linejoin="round" stroke-width="1.984"/>
    <path id="パス_9454" data-name="パス 9454" d="M49.681,79.357l1.163,1.163a3.235,3.235,0,0,0,5.41-3.138,3.224,3.224,0,0,0,5.284-3.354A3.23,3.23,0,0,0,66.2,69.952l.036.036a3.229,3.229,0,0,0,2.29.947,3.237,3.237,0,0,0,2.3-5.528L68.419,63,53.585,48.157a4.142,4.142,0,0,0-.55-.433l-1.488-1.488" transform="translate(407.618 3448.854)" fill="none" stroke="#1a1311" stroke-linecap="round" stroke-linejoin="round" stroke-width="1.984"/>
    <line id="線_5" data-name="線 5" x2="0.649" y2="0.649" transform="translate(452.123 3523.034)" fill="none" stroke="#1a1311" stroke-linecap="round" stroke-linejoin="round" stroke-width="1.984"/>
    <line id="線_6" data-name="線 6" x2="0.451" y2="0.451" transform="translate(447.092 3518.002)" fill="none" stroke="#1a1311" stroke-linecap="round" stroke-linejoin="round" stroke-width="1.984"/>
    <line id="線_7" data-name="線 7" x2="0.46" y2="0.46" transform="translate(442.042 3512.953)" fill="none" stroke="#1a1311" stroke-linecap="round" stroke-linejoin="round" stroke-width="1.984"/>
    <path id="パス_9455" data-name="パス 9455" d="M19.742,43.466l2.326,2.326s.333,2.074.983,4.644l.784,2.75c.758,2.39,1.777,4.752,3.031,6.006a.154.154,0,0,1,.035.045" transform="translate(410.56 3449.126)" fill="none" stroke="#1a1311" stroke-linecap="round" stroke-linejoin="round" stroke-width="1.984"/>
    <line id="線_8" data-name="線 8" x1="5.951" y1="5.951" transform="translate(443.485 3479.408)" fill="none" stroke="#1a1311" stroke-linecap="round" stroke-linejoin="round" stroke-width="1.984"/>
    <path id="パス_9456" data-name="パス 9456" d="M69.057,25.616l-2.245,2.236.676.676L80.671,41.711l.4.4L83.3,39.863" transform="translate(405.935 3450.88)" fill="none" stroke="#1a1311" stroke-linejoin="round" stroke-width="1.984"/>
    <path id="パス_9457" data-name="パス 9457" d="M81.11,9.526,67.881,22.754l1.28,1.28.667.667L83.013,37.885l.4.4,1.28,1.28L97.918,26.334" transform="translate(405.829 3452.461)" fill="none" stroke="#1a1311" stroke-linejoin="round" stroke-width="1.984"/>
    <path id="パス_9458" data-name="パス 9458" d="M31.078,25.616l2.236,2.236-.676.676L19.455,41.711l-.4.4-2.236-2.245" transform="translate(410.847 3450.88)" fill="none" stroke="#1a1311" stroke-linejoin="round" stroke-width="1.984"/>
    <path id="パス_9459" data-name="パス 9459" d="M17.519,9.5,30.774,22.751l-1.28,1.28-.676.676L15.634,37.891l-.4.388-1.28,1.28L.7,26.3" transform="translate(412.431 3452.464)" fill="none" stroke="#1a1311" stroke-linejoin="round" stroke-width="1.984"/>
    <path id="パス_9460" data-name="パス 9460" d="M32.129,65.216l-.271.271a3.242,3.242,0,0,1-4.58-4.59l.271-.271,2.083-2.083a3.245,3.245,0,1,1,4.59,4.59Z" transform="translate(409.913 3447.737)" fill="none" stroke="#1a1311" stroke-linecap="round" stroke-linejoin="round" stroke-width="1.984"/>
    <path id="パス_9461" data-name="パス 9461" d="M37.7,70.845l-.55.541a3.237,3.237,0,0,1-2.3.956,3.2,3.2,0,0,1-2.29-.956,3.244,3.244,0,0,1,0-4.581l.55-.55,1.8-1.8a3.242,3.242,0,1,1,4.59,4.581Z" transform="translate(409.394 3447.157)" fill="none" stroke="#1a1311" stroke-linecap="round" stroke-linejoin="round" stroke-width="1.984"/>
    <path id="パス_9462" data-name="パス 9462" d="M43.279,76.426l-.55.559a3.269,3.269,0,0,1-2.3.947A3.242,3.242,0,0,1,38.139,72.4l.558-.55,1.8-1.8a3.242,3.242,0,0,1,4.59,4.581Z" transform="translate(408.845 3446.608)" fill="none" stroke="#1a1311" stroke-linecap="round" stroke-linejoin="round" stroke-width="1.984"/>
    <path id="パス_9463" data-name="パス 9463" d="M49.118,82.2a3.154,3.154,0,0,1-1.921.64,3.246,3.246,0,0,1-2.606-5.167,2.984,2.984,0,0,1,.316-.37l1.172-1.181a3.245,3.245,0,0,1,4.59,4.59l-1.181,1.172A2.985,2.985,0,0,1,49.118,82.2Z" transform="translate(408.181 3446.01)" fill="none" stroke="#1a1311" stroke-linecap="round" stroke-linejoin="round" stroke-width="1.984"/>
    <path id="パス_9464" data-name="パス 9464" d="M59.073,35.419l-5.024-.334a3.47,3.47,0,0,0-2.3.685l-2.11,1.587-3.777,2.858L44.42,41.3a3.27,3.27,0,0,0-.623.6,3.5,3.5,0,0,0-.7,1.533L41.976,49.6a3.459,3.459,0,0,0,2.777,4.022,3.614,3.614,0,0,0,.621.054,3.454,3.454,0,0,0,3.219-2.227,3.256,3.256,0,0,0,.172-.6l.847-4.671L49.65,46l1.135-.857,4.095-3.084,2.262.153" transform="translate(408.381 3449.95)" fill="none" stroke="#1a1311" stroke-linecap="round" stroke-miterlimit="10" stroke-width="1.984"/>
    <line id="線_9" data-name="線 9" y2="12.316" transform="translate(458.505 3453.397)" fill="none" stroke="#1a1311" stroke-linejoin="round" stroke-width="1.984" stroke-dasharray="5.669 2.835"/>
    <line id="線_10" data-name="線 10" x2="5.914" y2="10.803" transform="translate(444.13 3456.481)" fill="none" stroke="#1a1311" stroke-linejoin="round" stroke-width="1.984" stroke-dasharray="5.669 2.835"/>
    <line id="線_11" data-name="線 11" x1="5.914" y2="10.803" transform="translate(466.967 3456.481)" fill="none" stroke="#1a1311" stroke-linejoin="round" stroke-width="1.984" stroke-dasharray="5.669 2.835"/>
    <rect id="長方形_539" data-name="長方形 539" width="91.88" height="77.827" transform="translate(412.5 3458.397)" fill="none"/>
    <g id="グループ_6456" data-name="グループ 6456" transform="translate(316.018 3500.015)" clip-path="url(#clip-path-3)">
      <path id="長方形_577" data-name="長方形 577" d="M7.055,0H77.426a7.055,7.055,0,0,1,7.055,7.055V52.182a7.054,7.054,0,0,1-7.054,7.054H7.055A7.055,7.055,0,0,1,0,52.181V7.055A7.055,7.055,0,0,1,7.055,0Z" transform="translate(10.001 1.038)" fill="#008bca"/>
      <path id="長方形_578" data-name="長方形 578" d="M7.055,0H77.426a7.055,7.055,0,0,1,7.055,7.055V52.182a7.054,7.054,0,0,1-7.054,7.054H7.055A7.055,7.055,0,0,1,0,52.181V7.055A7.055,7.055,0,0,1,7.055,0Z" transform="translate(10.001 1.038)" fill="none" stroke="#1a1311" stroke-linejoin="round" stroke-width="1.984"/>
      <rect id="長方形_579" data-name="長方形 579" width="74.806" height="47.368" transform="translate(14.838 6.048)" fill="#fff"/>
      <path id="パス_9524" data-name="パス 9524" d="M97.677,64.614a5.721,5.721,0,0,0,5.721-5.722H.993a5.721,5.721,0,0,0,5.721,5.722Z" transform="translate(0.046 2.733)" fill="#008bca"/>
      <path id="パス_9525" data-name="パス 9525" d="M97.677,64.614a5.721,5.721,0,0,0,5.721-5.722H.993a5.721,5.721,0,0,0,5.721,5.722Z" transform="translate(0.046 2.733)" fill="none" stroke="#1a1311" stroke-linejoin="round" stroke-width="1.984"/>
      <rect id="長方形_580" data-name="長方形 580" width="102.406" height="3.7" transform="translate(1.038 57.925)" fill="#fff"/>
      <rect id="長方形_581" data-name="長方形 581" width="102.406" height="3.7" transform="translate(1.038 57.925)" fill="none" stroke="#1a1311" stroke-linejoin="round" stroke-width="1.984"/>
    </g>
    <g id="グループ_6458" data-name="グループ 6458" transform="translate(346.14 3524.493)" clip-path="url(#clip-path-4)">
      <path id="パス_9526" data-name="パス 9526" d="M21.009,12.436c0-.013,0-.025,0-.038s0-.026,0-.039c.073-.987.576-1.523,2.54-2.161l-.861-2.65c-1.969.64-2.689.5-3.33-.262l-.039-.055c-.521-.842-.43-1.571.784-3.241L17.848,2.351C16.637,4.017,15.972,4.332,15.015,4.1l-.1-.033c-.9-.376-1.254-1.024-1.254-3.075H10.877c0,2.051-.351,2.7-1.254,3.075l-.1.033c-.958.232-1.622-.083-2.833-1.749L4.439,3.989c1.214,1.67,1.305,2.4.784,3.241l-.039.055c-.641.762-1.361.9-3.33.262L.992,10.2c1.964.638,2.466,1.175,2.54,2.162,0,.012,0,.025,0,.038s0,.025,0,.038c-.073.987-.575,1.523-2.54,2.161l.861,2.651c1.969-.64,2.689-.5,3.33.262l.039.055c.521.842.43,1.571-.784,3.242l2.254,1.638C7.9,20.778,8.569,20.464,9.526,20.7l.1.033c.9.375,1.254,1.024,1.254,3.075h2.786c0-2.051.351-2.7,1.254-3.076l.1-.033c.958-.232,1.622.082,2.833,1.749L20.1,20.807c-1.214-1.67-1.305-2.4-.784-3.241l.039-.056c.641-.761,1.361-.9,3.33-.262l.861-2.651c-1.964-.638-2.466-1.174-2.54-2.161M12.27,14.583A2.185,2.185,0,1,1,14.455,12.4a2.185,2.185,0,0,1-2.185,2.185" transform="translate(-0.436 -0.436)" fill="#008bca"/>
      <path id="パス_9527" data-name="パス 9527" d="M21.009,12.436c0-.013,0-.025,0-.038s0-.026,0-.039c.073-.987.576-1.523,2.54-2.161l-.861-2.65c-1.969.64-2.689.5-3.33-.262l-.039-.055c-.521-.842-.43-1.571.784-3.241L17.848,2.351C16.637,4.017,15.972,4.332,15.015,4.1l-.1-.033c-.9-.376-1.254-1.024-1.254-3.075H10.877c0,2.051-.351,2.7-1.254,3.075l-.1.033c-.958.232-1.622-.083-2.833-1.749L4.439,3.989c1.214,1.67,1.305,2.4.784,3.241l-.039.055c-.641.762-1.361.9-3.33.262L.992,10.2c1.964.638,2.466,1.175,2.54,2.162,0,.012,0,.025,0,.038s0,.025,0,.038c-.073.987-.575,1.523-2.54,2.161l.861,2.651c1.969-.64,2.689-.5,3.33.262l.039.055c.521.842.43,1.571-.784,3.242l2.254,1.638C7.9,20.778,8.569,20.464,9.526,20.7l.1.033c.9.375,1.254,1.024,1.254,3.075h2.786c0-2.051.351-2.7,1.254-3.076l.1-.033c.958-.232,1.622.082,2.833,1.749L20.1,20.807c-1.214-1.67-1.305-2.4-.784-3.241l.039-.056c.641-.761,1.361-.9,3.33-.262l.861-2.651C21.585,13.959,21.083,13.424,21.009,12.436ZM12.27,14.583A2.185,2.185,0,1,1,14.455,12.4,2.185,2.185,0,0,1,12.27,14.583Z" transform="translate(-0.436 -0.436)" fill="none" stroke="#1a1311" stroke-linejoin="round" stroke-width="1.984"/>
    </g>
    <g id="グループ_6460" data-name="グループ 6460" transform="translate(367.018 3514.157)" clip-path="url(#clip-path-5)">
      <path id="パス_9528" data-name="パス 9528" d="M17.8,10.6v-.064c.061-.829.483-1.279,2.132-1.815L19.21,6.5c-1.654.537-2.258.419-2.8-.22l-.034-.047c-.437-.707-.361-1.319.658-2.722L15.146,2.134C14.129,3.533,13.571,3.8,12.767,3.6l-.081-.028c-.759-.315-1.053-.859-1.053-2.582H9.293C9.293,2.715,9,3.26,8.24,3.574L8.158,3.6c-.8.195-1.362-.069-2.379-1.468L3.886,3.51c1.019,1.4,1.1,2.014.658,2.722l-.033.047c-.538.639-1.143.758-2.8.22L.992,8.723c1.649.536,2.071.985,2.132,1.815V10.6c-.061.829-.483,1.279-2.132,1.815l.723,2.225c1.654-.537,2.258-.419,2.8.22l.033.047c.437.707.361,1.319-.658,2.722l1.893,1.375c1.017-1.4,1.575-1.664,2.379-1.469l.082.028c.758.316,1.053.86,1.053,2.583h2.339c0-1.723.294-2.268,1.053-2.583l.081-.028c.8-.195,1.362.07,2.379,1.469l1.893-1.375c-1.019-1.4-1.1-2.014-.658-2.722l.034-.047c.537-.639,1.142-.758,2.8-.22l.723-2.225c-1.649-.536-2.071-.986-2.132-1.815m-7.338,4A4.037,4.037,0,1,1,14.5,10.57a4.037,4.037,0,0,1-4.037,4.037" transform="translate(-0.234 -0.234)" fill="#9ed5eb"/>
      <path id="パス_9529" data-name="パス 9529" d="M17.8,10.6v-.064c.061-.829.483-1.279,2.132-1.815L19.21,6.5c-1.654.537-2.258.419-2.8-.22l-.034-.047c-.437-.707-.361-1.319.658-2.722L15.146,2.134C14.129,3.533,13.571,3.8,12.767,3.6l-.081-.028c-.759-.315-1.053-.859-1.053-2.582H9.293C9.293,2.715,9,3.26,8.24,3.574L8.158,3.6c-.8.195-1.362-.069-2.379-1.468L3.886,3.51c1.019,1.4,1.1,2.014.658,2.722l-.033.047c-.538.639-1.143.758-2.8.22L.992,8.723c1.649.536,2.071.985,2.132,1.815V10.6c-.061.829-.483,1.279-2.132,1.815l.723,2.225c1.654-.537,2.258-.419,2.8.22l.033.047c.437.707.361,1.319-.658,2.722l1.893,1.375c1.017-1.4,1.575-1.664,2.379-1.469l.082.028c.758.316,1.053.86,1.053,2.583h2.339c0-1.723.294-2.268,1.053-2.583l.081-.028c.8-.195,1.362.07,2.379,1.469l1.893-1.375c-1.019-1.4-1.1-2.014-.658-2.722l.034-.047c.537-.639,1.142-.758,2.8-.22l.723-2.225C18.284,11.882,17.862,11.431,17.8,10.6Zm-7.338,4A4.037,4.037,0,1,1,14.5,10.57,4.037,4.037,0,0,1,10.463,14.607Z" transform="translate(-0.234 -0.234)" fill="none" stroke="#1a1311" stroke-linejoin="round" stroke-width="1.984"/>
    </g>
  </g>
</svg>
