<svg xmlns="http://www.w3.org/2000/svg" xmlns:xlink="http://www.w3.org/1999/xlink" width="161.935" height="107.414" viewBox="0 0 161.935 107.414">
  <defs>
    <clipPath id="clip-path">
      <rect id="長方形_544" data-name="長方形 544" width="55.684" height="94.797" transform="translate(0 0)" fill="none"/>
    </clipPath>
    <clipPath id="clip-path-2">
      <rect id="長方形_547" data-name="長方形 547" width="91.833" height="55.346" fill="none"/>
    </clipPath>
  </defs>
  <g id="グループ_7840" data-name="グループ 7840" transform="translate(-883.065 -3467)">
    <g id="グループ_6465" data-name="グループ 6465" transform="translate(883.065 3479.617)">
      <g id="グループ_6437" data-name="グループ 6437" clip-path="url(#clip-path)">
        <path id="パス_9466" data-name="パス 9466" d="M43.474,46.058a4.416,4.416,0,0,1-1-8.715l5.916-1.386a4.415,4.415,0,0,1,2.014,8.6l-5.915,1.386a4.453,4.453,0,0,1-1.011.117" fill="#fff"/>
        <path id="パス_9467" data-name="パス 9467" d="M43.474,46.058a4.416,4.416,0,0,1-1-8.715l5.916-1.386a4.415,4.415,0,0,1,2.014,8.6l-5.915,1.386A4.453,4.453,0,0,1,43.474,46.058Z" fill="none" stroke="#1a1311" stroke-linejoin="round" stroke-width="1.984"/>
        <path id="パス_9468" data-name="パス 9468" d="M44.305,32.185a4.415,4.415,0,0,1-.83-8.751l5.965-1.15a4.415,4.415,0,1,1,1.671,8.671L45.145,32.1a4.384,4.384,0,0,1-.84.081" fill="#fff"/>
        <path id="パス_9469" data-name="パス 9469" d="M44.305,32.185a4.415,4.415,0,0,1-.83-8.751l5.965-1.15a4.415,4.415,0,1,1,1.671,8.671L45.145,32.1A4.384,4.384,0,0,1,44.305,32.185Z" fill="none" stroke="#1a1311" stroke-linejoin="round" stroke-width="1.984"/>
        <path id="パス_9470" data-name="パス 9470" d="M41.754,25.509a4.415,4.415,0,0,1-3.122-7.537l7.639-7.639a4.415,4.415,0,0,1,6.244,6.244l-7.639,7.639a4.4,4.4,0,0,1-3.122,1.293" fill="#fff"/>
        <path id="パス_9471" data-name="パス 9471" d="M41.754,25.509a4.415,4.415,0,0,1-3.122-7.537l7.639-7.639a4.415,4.415,0,0,1,6.244,6.244l-7.639,7.639A4.4,4.4,0,0,1,41.754,25.509Z" fill="none" stroke="#1a1311" stroke-linejoin="round" stroke-width="1.984"/>
        <path id="パス_9472" data-name="パス 9472" d="M1.539,36.6C-1.329,25.448,7.922,23.9,10,33.351c1.97,8.956,11.028,14.64,20.869,17.747s12.608,8.719,12.608,8.719-3.026,6.336-3.026,9.841V85.7H15.073V72.236c0-6.067-6.929-11.286-8.287-15.021C4.944,52.149,1.539,36.6,1.539,36.6" fill="#fff"/>
        <path id="パス_9473" data-name="パス 9473" d="M1.539,36.6C-1.329,25.448,7.922,23.9,10,33.351c1.97,8.956,11.028,14.64,20.869,17.747s12.608,8.719,12.608,8.719-3.026,6.336-3.026,9.841V85.7H15.073V72.236c0-6.067-6.929-11.286-8.287-15.021C4.944,52.149,1.539,36.6,1.539,36.6Z" fill="none" stroke="#1a1311" stroke-linejoin="round" stroke-width="1.984"/>
        <rect id="長方形_540" data-name="長方形 540" width="27.443" height="4.407" transform="translate(14.311 75.862)" fill="#fff"/>
        <rect id="長方形_541" data-name="長方形 541" width="27.443" height="4.407" transform="translate(14.311 75.862)" fill="none" stroke="#1a1311" stroke-linejoin="round" stroke-width="1.984"/>
        <path id="パス_9474" data-name="パス 9474" d="M44.222,94.8V80.178H11.843V94.8" fill="#8bab0f"/>
        <path id="パス_9475" data-name="パス 9475" d="M44.222,94.8V80.178H11.843V94.8" fill="none" stroke="#1a1311" stroke-linejoin="round" stroke-width="1.984"/>
        <path id="パス_9476" data-name="パス 9476" d="M36.981.992H11.688A3.285,3.285,0,0,0,8.406,4.273V61.356a3.285,3.285,0,0,0,3.282,3.281H43.27a3.285,3.285,0,0,0,3.281-3.281V4.273A3.285,3.285,0,0,0,43.27.992H36.981Z" fill="#8bab0f"/>
        <path id="パス_9477" data-name="パス 9477" d="M36.981.992H11.688A3.285,3.285,0,0,0,8.406,4.273V61.356a3.285,3.285,0,0,0,3.282,3.281H43.27a3.285,3.285,0,0,0,3.281-3.281V4.273A3.285,3.285,0,0,0,43.27.992H36.981Z" fill="none" stroke="#1a1311" stroke-linejoin="round" stroke-width="1.984"/>
        <rect id="長方形_542" data-name="長方形 542" width="30.509" height="56.009" transform="translate(12.224 4.81)" fill="#fff"/>
        <rect id="長方形_543" data-name="長方形 543" width="30.509" height="56.009" transform="translate(12.224 4.81)" fill="none" stroke="#1a1311" stroke-linejoin="round" stroke-width="1.984"/>
        <path id="パス_9478" data-name="パス 9478" d="M45.98,35.331a4.415,4.415,0,0,1-3.122-7.537l4.3-4.3A4.415,4.415,0,0,1,53.4,29.742l-4.3,4.3a4.4,4.4,0,0,1-3.122,1.293" fill="#fff"/>
        <path id="パス_9479" data-name="パス 9479" d="M45.98,35.331a4.415,4.415,0,0,1-3.122-7.537l4.3-4.3A4.415,4.415,0,0,1,53.4,29.742l-4.3,4.3A4.4,4.4,0,0,1,45.98,35.331Z" fill="none" stroke="#1a1311" stroke-linejoin="round" stroke-width="1.984"/>
        <path id="パス_9480" data-name="パス 9480" d="M45.1,48.967a4.415,4.415,0,0,1-3.122-7.537l4.3-4.3a4.415,4.415,0,0,1,6.244,6.244l-4.3,4.3A4.4,4.4,0,0,1,45.1,48.967" fill="#fff"/>
        <path id="パス_9481" data-name="パス 9481" d="M45.1,48.967a4.415,4.415,0,0,1-3.122-7.537l4.3-4.3a4.415,4.415,0,0,1,6.244,6.244l-4.3,4.3A4.4,4.4,0,0,1,45.1,48.967Z" fill="none" stroke="#1a1311" stroke-linejoin="round" stroke-width="1.984"/>
        <path id="パス_9482" data-name="パス 9482" d="M45.1,59.256a4.415,4.415,0,0,1-3.122-7.537l4.3-4.3a4.415,4.415,0,0,1,6.244,6.244l-4.3,4.3A4.4,4.4,0,0,1,45.1,59.256" fill="#fff"/>
        <path id="パス_9483" data-name="パス 9483" d="M45.1,59.256a4.415,4.415,0,0,1-3.122-7.537l4.3-4.3a4.415,4.415,0,0,1,6.244,6.244l-4.3,4.3A4.4,4.4,0,0,1,45.1,59.256Z" fill="none" stroke="#1a1311" stroke-linejoin="round" stroke-width="1.984"/>
      </g>
    </g>
    <g id="グループ_6466" data-name="グループ 6466" transform="translate(953.167 3467)">
      <rect id="長方形_545" data-name="長方形 545" width="49.97" height="37.437" transform="translate(19.63 8.236)" fill="#8bab0f"/>
      <rect id="長方形_546" data-name="長方形 546" width="49.97" height="37.437" transform="translate(19.63 8.236)" fill="none" stroke="#1a1311" stroke-linecap="round" stroke-linejoin="round" stroke-width="1.984"/>
      <g id="グループ_6440" data-name="グループ 6440" transform="translate(0 0)">
        <g id="グループ_6439" data-name="グループ 6439" clip-path="url(#clip-path-2)">
          <path id="パス_9484" data-name="パス 9484" d="M92.9,51.058V21.466h9.608a5.916,5.916,0,0,1,4.929,2.645l5.967,9a5.912,5.912,0,0,1,.985,3.269v14.68Z" transform="translate(-23.304 -5.384)" fill="#fff"/>
          <path id="パス_9485" data-name="パス 9485" d="M92.9,51.058V21.466h9.608a5.916,5.916,0,0,1,4.929,2.645l5.967,9a5.912,5.912,0,0,1,.985,3.269v14.68Z" transform="translate(-23.304 -5.384)" fill="none" stroke="#1a1311" stroke-linecap="round" stroke-linejoin="round" stroke-width="1.984"/>
          <path id="パス_9486" data-name="パス 9486" d="M107.759,36.333h-7.331a1.163,1.163,0,0,1-1.163-1.163V29.927a1.163,1.163,0,0,1,1.163-1.163h3.905a1.163,1.163,0,0,1,.973.527l3.426,5.242A1.163,1.163,0,0,1,107.759,36.333Z" transform="translate(-24.9 -7.215)" fill="none" stroke="#1a1311" stroke-linecap="round" stroke-linejoin="round" stroke-width="1.984"/>
          <path id="パス_9487" data-name="パス 9487" d="M53.137,62.716a6.09,6.09,0,1,1-6.091-6.091,6.091,6.091,0,0,1,6.091,6.091" transform="translate(-10.273 -14.204)" fill="#fff"/>
          <path id="パス_9488" data-name="パス 9488" d="M53.137,62.716a6.09,6.09,0,1,1-6.091-6.091A6.091,6.091,0,0,1,53.137,62.716Z" transform="translate(-10.273 -14.204)" fill="none" stroke="#1a1311" stroke-linecap="round" stroke-linejoin="round" stroke-width="1.984"/>
          <path id="パス_9489" data-name="パス 9489" d="M110.675,62.716a6.09,6.09,0,1,1-6.091-6.091,6.091,6.091,0,0,1,6.091,6.091" transform="translate(-24.706 -14.204)" fill="#fff"/>
          <path id="パス_9490" data-name="パス 9490" d="M110.675,62.716a6.09,6.09,0,1,1-6.091-6.091A6.091,6.091,0,0,1,110.675,62.716Z" transform="translate(-24.706 -14.204)" fill="none" stroke="#1a1311" stroke-linecap="round" stroke-linejoin="round" stroke-width="1.984"/>
          <line id="線_12" data-name="線 12" x1="22.393" transform="translate(37.952 0.743)" fill="#fff"/>
          <line id="線_13" data-name="線 13" x1="22.393" transform="translate(37.952 0.743)" fill="none" stroke="#1a1311" stroke-linecap="round" stroke-linejoin="round" stroke-width="1.984"/>
          <line id="線_14" data-name="線 14" x1="4.573" transform="translate(27.233 0.743)" fill="#fff"/>
          <line id="線_15" data-name="線 15" x1="4.573" transform="translate(27.233 0.743)" fill="none" stroke="#1a1311" stroke-linecap="round" stroke-linejoin="round" stroke-width="1.984"/>
          <line id="線_16" data-name="線 16" x1="22.393" transform="translate(11.462 29.118)" fill="#fff"/>
          <line id="線_17" data-name="線 17" x1="22.393" transform="translate(11.462 29.118)" fill="none" stroke="#1a1311" stroke-linecap="round" stroke-linejoin="round" stroke-width="1.984"/>
          <line id="線_18" data-name="線 18" x1="4.573" transform="translate(0.743 29.118)" fill="#fff"/>
          <line id="線_19" data-name="線 19" x1="4.573" transform="translate(0.743 29.118)" fill="none" stroke="#1a1311" stroke-linecap="round" stroke-linejoin="round" stroke-width="1.984"/>
        </g>
      </g>
    </g>
  </g>
</svg>
