<svg xmlns="http://www.w3.org/2000/svg" xmlns:xlink="http://www.w3.org/1999/xlink" width="170.542" height="117.47" viewBox="0 0 170.542 117.47">
  <defs>
    <clipPath id="clip-path">
      <rect id="長方形_576" data-name="長方形 576" width="81.982" height="80.19" fill="none"/>
    </clipPath>
    <clipPath id="clip-path-2">
      <rect id="長方形_566" data-name="長方形 566" width="33.911" height="59.083" fill="none"/>
    </clipPath>
    <clipPath id="clip-path-4">
      <rect id="長方形_575" data-name="長方形 575" width="28.569" height="61.609" fill="none"/>
    </clipPath>
    <clipPath id="clip-path-6">
      <rect id="長方形_554" data-name="長方形 554" width="85.579" height="88.693" fill="none"/>
    </clipPath>
  </defs>
  <g id="グループ_7841" data-name="グループ 7841" transform="translate(-1432.097 -3458)">
    <g id="グループ_6468" data-name="グループ 6468" transform="translate(1432.097 3500.28)">
      <g id="グループ_6454" data-name="グループ 6454" transform="translate(0 -5)" clip-path="url(#clip-path)">
        <g id="グループ_6449" data-name="グループ 6449" transform="translate(0.878 20.882)">
          <g id="グループ_6448" data-name="グループ 6448" clip-path="url(#clip-path-2)">
            <g id="グループ_6447" data-name="グループ 6447">
              <g id="グループ_6446" data-name="グループ 6446" clip-path="url(#clip-path-2)">
                <path id="パス_9510" data-name="パス 9510" d="M33.89,35a2.859,2.859,0,0,1,.345,4.02l-5.543,6.57v4c0,3.861-5.233,11.05-5.233,11.05V63.48H7.45V56.334L4.192,53.067a2.821,2.821,0,0,1-.841-2.01V45.868L1.066,36A2.85,2.85,0,1,1,6.618,34.7L7.9,40.254l9.182-15.283a2.838,2.838,0,0,1,5.277,1.585l.761-1.151a2.85,2.85,0,1,1,4.755,3.143l-1.045,1.585.947-1.151a2.85,2.85,0,1,1,4.4,3.621l-2.037,2.479A2.843,2.843,0,0,1,33.89,35" transform="translate(-0.992 -23.584)" fill="#fff"/>
                <path id="パス_9511" data-name="パス 9511" d="M26.032,71.711V88.18H5.6V71.711H7.154v7.3H24.474v-7.3Z" transform="translate(-1.52 -29.097)" fill="#c6004e"/>
                <path id="パス_9512" data-name="パス 9512" d="M24.675,71.711v7.3H7.356v-7.3h.823V75.2H24.188V71.711Z" transform="translate(-1.721 -29.097)" fill="#c6004e"/>
                <rect id="長方形_561" data-name="長方形 561" width="0.487" height="2.718" transform="translate(22.467 39.895)" fill="#fff"/>
                <rect id="長方形_562" data-name="長方形 562" width="16.009" height="3.489" transform="translate(6.458 42.613)" fill="#c6004e"/>
                <rect id="長方形_563" data-name="長方形 563" width="16.009" height="2.718" transform="translate(6.458 39.895)" fill="#fff"/>
                <rect id="長方形_564" data-name="長方形 564" width="0.823" height="2.718" transform="translate(5.635 39.895)" fill="#fff"/>
              </g>
            </g>
          </g>
        </g>
        <path id="パス_9513" data-name="パス 9513" d="M23.459,63.48V60.646s5.233-7.19,5.233-11.05v-4l5.543-6.57a2.846,2.846,0,0,0-4.091-3.94L32.181,32.6a2.85,2.85,0,1,0-4.4-3.621l-.947,1.151,1.045-1.585a2.85,2.85,0,1,0-4.755-3.143l-.761,1.151a2.838,2.838,0,0,0-5.277-1.585L7.9,40.254,6.618,34.7A2.85,2.85,0,1,0,1.066,36l2.284,9.873v5.189a2.821,2.821,0,0,0,.841,2.01L7.45,56.334V63.48" transform="translate(-0.114 -2.702)" fill="none" stroke="#1a1311" stroke-linejoin="round" stroke-width="1.984"/>
        <path id="パス_9514" data-name="パス 9514" d="M7.356,71.359V68.641H24.675v2.718" transform="translate(-0.843 -7.864)" fill="none" stroke="#1a1311" stroke-linejoin="round" stroke-width="1.984"/>
        <path id="パス_9515" data-name="パス 9515" d="M5.6,88.18V71.711H26.032V88.18" transform="translate(-0.641 -8.215)" fill="none" stroke="#1a1311" stroke-linejoin="round" stroke-width="1.984"/>
        <line id="線_25" data-name="線 25" x1="5.751" y2="8.995" transform="translate(16.499 23.852)" fill="#fff"/>
        <line id="線_26" data-name="線 26" x1="5.751" y2="8.995" transform="translate(16.499 23.852)" fill="none" stroke="#1a1311" stroke-linecap="round" stroke-linejoin="round" stroke-width="1.984"/>
        <line id="線_27" data-name="線 27" x1="6.036" y2="8.995" transform="translate(20.686 27.427)" fill="#fff"/>
        <line id="線_28" data-name="線 28" x1="6.036" y2="8.995" transform="translate(20.686 27.427)" fill="none" stroke="#1a1311" stroke-linecap="round" stroke-linejoin="round" stroke-width="1.984"/>
        <line id="線_29" data-name="線 29" x1="5.268" y2="7.029" transform="translate(24.763 32.38)" fill="#fff"/>
        <line id="線_30" data-name="線 30" x1="5.268" y2="7.029" transform="translate(24.763 32.38)" fill="none" stroke="#1a1311" stroke-linecap="round" stroke-linejoin="round" stroke-width="1.984"/>
        <rect id="長方形_567" data-name="長方形 567" width="64.45" height="42.207" rx="1.748" transform="translate(10.339 0.878)" fill="#c6004e"/>
        <rect id="長方形_568" data-name="長方形 568" width="64.45" height="42.207" rx="1.748" transform="translate(10.339 0.878)" fill="none" stroke="#1a1311" stroke-linejoin="round" stroke-width="1.984"/>
        <rect id="長方形_569" data-name="長方形 569" width="58.042" height="35.799" transform="translate(13.544 4.082)" fill="#fff"/>
        <g id="グループ_6453" data-name="グループ 6453" transform="translate(52.534 18.258)">
          <g id="グループ_6452" data-name="グループ 6452" clip-path="url(#clip-path-4)">
            <g id="グループ_6451" data-name="グループ 6451">
              <g id="グループ_6450" data-name="グループ 6450" clip-path="url(#clip-path-4)">
                <path id="パス_9516" data-name="パス 9516" d="M87.9,41.579v2.435a3.149,3.149,0,0,1-.08.646V49.15A14.088,14.088,0,0,1,85.934,54.8l-1.31,2.3c-1.089,1.8-2.037,3.1-2.037,3.1v2.833H66.578V55.888L63.311,52.63a2.885,2.885,0,0,1-.832-2.019V45.7l-2.9-6.588a2.85,2.85,0,1,1,5.215-2.3l1.656,3.745V23.472a2.851,2.851,0,0,1,5.7,0v10.2a2.843,2.843,0,0,1,5.384,1.284v1.151a2.848,2.848,0,0,1,5.18,1.638v2.2A2.854,2.854,0,0,1,87.9,41.579" transform="translate(-59.33 -20.621)" fill="#fff"/>
                <path id="パス_9517" data-name="パス 9517" d="M85.253,71.6V88.07H64.826V71.6h1.558v7.3H83.7V71.6Z" transform="translate(-59.96 -26.461)" fill="#c6004e"/>
                <path id="パス_9518" data-name="パス 9518" d="M83.905,71.6v7.3H66.586V71.6h.823v3.48H83.418V71.6Z" transform="translate(-60.162 -26.461)" fill="#c6004e"/>
                <rect id="長方形_570" data-name="長方形 570" width="0.487" height="2.727" transform="translate(23.257 42.413)" fill="#fff"/>
                <rect id="長方形_571" data-name="長方形 571" width="16.009" height="3.48" transform="translate(7.248 45.14)" fill="#c6004e"/>
                <rect id="長方形_572" data-name="長方形 572" width="16.009" height="2.727" transform="translate(7.248 42.413)" fill="#fff"/>
                <rect id="長方形_573" data-name="長方形 573" width="0.823" height="2.727" transform="translate(6.424 42.413)" fill="#fff"/>
              </g>
            </g>
          </g>
        </g>
        <path id="パス_9519" data-name="パス 9519" d="M82.587,63.034V60.2s.947-1.3,2.037-3.1l1.31-2.3A14.088,14.088,0,0,0,87.82,49.15V44.661a3.149,3.149,0,0,0,.08-.646V41.579a2.854,2.854,0,0,0-5.189-1.638v-2.2a2.848,2.848,0,0,0-5.18-1.638V34.956a2.843,2.843,0,0,0-5.384-1.284v-10.2a2.851,2.851,0,0,0-5.7,0v17.08L64.79,36.807a2.85,2.85,0,1,0-5.215,2.3l2.9,6.588v4.914a2.885,2.885,0,0,0,.832,2.019l3.267,3.258v7.146" transform="translate(-6.797 -2.363)" fill="none" stroke="#1a1311" stroke-linejoin="round" stroke-width="1.984"/>
        <path id="パス_9520" data-name="パス 9520" d="M66.586,71.248V68.521H83.905v2.727" transform="translate(-7.628 -7.85)" fill="none" stroke="#1a1311" stroke-linejoin="round" stroke-width="1.984"/>
        <path id="パス_9521" data-name="パス 9521" d="M64.826,88.07V71.6H85.253V88.07" transform="translate(-7.426 -8.203)" fill="none" stroke="#1a1311" stroke-linejoin="round" stroke-width="1.984"/>
        <path id="パス_9522" data-name="パス 9522" d="M13.437,55.937a9.394,9.394,0,0,0-1.049-7.5c-2.328-4.059-2.815-2.765-3.632-6.033" transform="translate(-1.003 -4.858)" fill="#fff"/>
        <path id="パス_9523" data-name="パス 9523" d="M13.437,55.937a9.394,9.394,0,0,0-1.049-7.5c-2.328-4.059-2.815-2.765-3.632-6.033" transform="translate(-1.003 -4.858)" fill="none" stroke="#1a1311" stroke-linecap="round" stroke-linejoin="round" stroke-width="1.984"/>
      </g>
    </g>
    <g id="グループ_6442" data-name="グループ 6442" transform="translate(1517.06 3458)" clip-path="url(#clip-path-6)">
      <path id="パス_9491" data-name="パス 9491" d="M48.4,68.054a7.566,7.566,0,1,0-7.566-7.566A7.566,7.566,0,0,0,48.4,68.054" transform="translate(-5.564 -7.21)" fill="#fff"/>
      <path id="パス_9492" data-name="パス 9492" d="M47.049,70.53c-7.51,0-15.636-.914-16.154,18.553-.015,1.835,1.16,2.426,2.91,3.076a10.354,10.354,0,0,0,3.483.41v4.875H56.232V91.975a8.48,8.48,0,0,0,4.061.184c1.75-.65,2.925-1.241,2.91-3.076C62.685,69.616,54.559,70.53,47.049,70.53" transform="translate(-4.209 -9.609)" fill="#fff"/>
      <line id="線_20" data-name="線 20" y1="4.876" transform="translate(33.078 82.96)" fill="none" stroke="#1a1311" stroke-linecap="round" stroke-linejoin="round" stroke-width="1.984"/>
      <line id="線_21" data-name="線 21" y2="5.469" transform="translate(52.023 82.366)" fill="none" stroke="#1a1311" stroke-linecap="round" stroke-linejoin="round" stroke-width="1.984"/>
      <line id="線_22" data-name="線 22" y1="6.711" transform="translate(33.078 68.853)" fill="none" stroke="#1a1311" stroke-linecap="round" stroke-linejoin="round" stroke-width="1.984"/>
      <line id="線_23" data-name="線 23" y2="5.469" transform="translate(52.023 68.26)" fill="none" stroke="#1a1311" stroke-linecap="round" stroke-linejoin="round" stroke-width="1.984"/>
      <circle id="楕円形_4" data-name="楕円形 4" cx="7.566" cy="7.566" r="7.566" transform="translate(35.273 45.711)" fill="none" stroke="#1a1311" stroke-linecap="round" stroke-linejoin="round" stroke-width="1.984"/>
      <path id="パス_9493" data-name="パス 9493" d="M56.232,83.338c-4.118-.426-12.935-.314-18.945,1.835,0,0,18.97,8.483,23.005,6.985,1.751-.65,2.925-1.241,2.91-3.076-.518-19.467-8.644-18.553-16.154-18.553s-15.635-.914-16.154,18.553c-.015,1.835,1.16,2.426,2.91,3.076,4.035,1.5,16.613-1.554,16.613-1.554" transform="translate(-4.209 -9.608)" fill="none" stroke="#1a1311" stroke-linecap="round" stroke-linejoin="round" stroke-width="1.984"/>
      <path id="パス_9494" data-name="パス 9494" d="M91.77,25.513H72.146A2.456,2.456,0,0,1,69.7,23.064V3.44A2.455,2.455,0,0,1,72.146.992H91.77A2.455,2.455,0,0,1,94.219,3.44V23.064a2.456,2.456,0,0,1-2.449,2.449" transform="translate(-9.496 -0.135)" fill="#fff"/>
      <path id="長方形_548" data-name="長方形 548" d="M2.835,0H21.687a2.835,2.835,0,0,1,2.835,2.835V21.687a2.834,2.834,0,0,1-2.834,2.834H2.834A2.834,2.834,0,0,1,0,21.687V2.835A2.835,2.835,0,0,1,2.835,0Z" transform="translate(60.201 0.857)" fill="none" stroke="#1a1311" stroke-linecap="round" stroke-linejoin="round" stroke-width="1.984"/>
      <path id="パス_9495" data-name="パス 9495" d="M83.209,5.943v7.985l-4.327,6.7A7.982,7.982,0,1,0,83.209,5.943" transform="translate(-10.747 -0.81)" fill="#c6004e"/>
      <path id="パス_9496" data-name="パス 9496" d="M83.209,5.943v7.985l-4.327,6.7A7.982,7.982,0,1,0,83.209,5.943Z" transform="translate(-10.747 -0.81)" fill="none" stroke="#1a1311" stroke-linecap="round" stroke-linejoin="round" stroke-width="1.984"/>
      <path id="パス_9497" data-name="パス 9497" d="M82.974,5.943a7.956,7.956,0,0,0-5.82,2.529l5.82,5.455Z" transform="translate(-10.512 -0.81)" fill="#fff"/>
      <path id="パス_9498" data-name="パス 9498" d="M82.974,5.943a7.956,7.956,0,0,0-5.82,2.529l5.82,5.455Z" transform="translate(-10.512 -0.81)" fill="none" stroke="#1a1311" stroke-linecap="round" stroke-linejoin="round" stroke-width="1.984"/>
      <path id="パス_9499" data-name="パス 9499" d="M76.813,8.87a7.967,7.967,0,0,0,1.492,12.161l4.327-6.7Z" transform="translate(-10.171 -1.209)" fill="#7f7f7f"/>
      <path id="パス_9500" data-name="パス 9500" d="M76.813,8.87a7.967,7.967,0,0,0,1.492,12.161l4.327-6.7Z" transform="translate(-10.171 -1.209)" fill="none" stroke="#1a1311" stroke-linecap="round" stroke-linejoin="round" stroke-width="1.984"/>
      <path id="パス_9501" data-name="パス 9501" d="M23.065,25.513H3.441A2.456,2.456,0,0,1,.992,23.064V3.44A2.455,2.455,0,0,1,3.441.992H23.065A2.455,2.455,0,0,1,25.514,3.44V23.064a2.456,2.456,0,0,1-2.449,2.449" transform="translate(-0.135 -0.135)" fill="#fff"/>
      <rect id="長方形_549" data-name="長方形 549" width="24.522" height="24.521" rx="2.835" transform="translate(0.857 0.857)" fill="none" stroke="#1a1311" stroke-linecap="round" stroke-linejoin="round" stroke-width="1.984"/>
      <rect id="長方形_550" data-name="長方形 550" width="2.928" height="11.435" transform="translate(11.473 8.49)" fill="#c6004e"/>
      <rect id="長方形_551" data-name="長方形 551" width="2.928" height="14.478" transform="translate(17.456 5.447)" fill="#c6004e"/>
      <rect id="長方形_552" data-name="長方形 552" width="2.928" height="8.392" transform="translate(5.491 11.533)" fill="#c6004e"/>
      <path id="パス_9502" data-name="パス 9502" d="M57.417,25.513H37.793a2.456,2.456,0,0,1-2.449-2.449V3.44A2.455,2.455,0,0,1,37.793.992H57.417A2.455,2.455,0,0,1,59.866,3.44V23.064a2.456,2.456,0,0,1-2.449,2.449" transform="translate(-4.816 -0.135)" fill="#fff"/>
      <path id="長方形_553" data-name="長方形 553" d="M2.835,0H21.687a2.835,2.835,0,0,1,2.835,2.835V21.687a2.834,2.834,0,0,1-2.834,2.834H2.835A2.835,2.835,0,0,1,0,21.686V2.835A2.835,2.835,0,0,1,2.835,0Z" transform="translate(30.529 0.857)" fill="none" stroke="#1a1311" stroke-linecap="round" stroke-linejoin="round" stroke-width="1.984"/>
      <path id="パス_9503" data-name="パス 9503" d="M39.08,20.115l2.26-4.944,6.928,4.518,5.392-9.434,3.888-3.162" transform="translate(-5.324 -0.966)" fill="none" stroke="#1a1311" stroke-linecap="round" stroke-linejoin="round" stroke-width="1.984"/>
      <path id="パス_9504" data-name="パス 9504" d="M43.6,16.089A2.259,2.259,0,1,1,41.34,13.83,2.258,2.258,0,0,1,43.6,16.089" transform="translate(-5.325 -1.884)" fill="#c6004e"/>
      <path id="パス_9505" data-name="パス 9505" d="M51.619,21.32a2.259,2.259,0,1,1-2.259-2.26,2.259,2.259,0,0,1,2.259,2.26" transform="translate(-6.417 -2.597)" fill="#c6004e"/>
      <path id="パス_9506" data-name="パス 9506" d="M57.862,10.4A2.259,2.259,0,1,1,55.6,8.139,2.258,2.258,0,0,1,57.862,10.4" transform="translate(-7.268 -1.109)" fill="#c6004e"/>
      <line id="線_24" data-name="線 24" y2="17.394" transform="translate(42.942 25.378)" fill="none" stroke="#1a1311" stroke-linecap="round" stroke-linejoin="round" stroke-width="1.984"/>
      <path id="パス_9507" data-name="パス 9507" d="M15.187,29.381v4.944A4.877,4.877,0,0,0,20.065,39.2H69.654a4.877,4.877,0,0,0,4.878-4.877V29.381" transform="translate(-2.069 -4.003)" fill="none" stroke="#1a1311" stroke-linecap="round" stroke-linejoin="round" stroke-width="1.984"/>
    </g>
  </g>
</svg>
