<svg xmlns="http://www.w3.org/2000/svg" xmlns:xlink="http://www.w3.org/1999/xlink" width="42.137" height="43.826" viewBox="0 0 42.137 43.826">
  <defs>
    <clipPath id="clip-path">
      <rect id="長方形_685" data-name="長方形 685" width="33.518" height="35.981" fill="#203444"/>
    </clipPath>
  </defs>
  <g id="グループ_6641" data-name="グループ 6641" transform="translate(0 9.239) rotate(-16)">
    <g id="グループ_6631" data-name="グループ 6631" transform="translate(0 0)" clip-path="url(#clip-path)">
      <path id="パス_9779" data-name="パス 9779" d="M18.874,15.947c7.054,0,14.644-1.47,14.644-4.7s-7.59-4.7-14.644-4.7c-6.15,0-11.388,1.8-14.091,4.521-1.737-.955-2.709-2.047-2.709-3.095,0-2.791,6.9-5.9,16.8-5.9a1.036,1.036,0,1,0,0-2.072C8.115,0,0,3.429,0,7.975c0,1.807,1.3,3.431,3.52,4.74a5.4,5.4,0,0,0-.706,2.635c0,2.573,1.929,4.848,5.041,6.444a4.5,4.5,0,0,0-.784,2.474c0,2.3,1.878,4.294,4.806,5.526a4.072,4.072,0,0,0-.084.785c0,2.978,3.178,5.4,7.082,5.4a1.036,1.036,0,1,0,0-2.072c-2.715,0-5.009-1.525-5.009-3.329,0-.037.015-.071.016-.107a19.556,19.556,0,0,0,4.993.628c3.354,0,6.739-.915,6.739-2.961s-3.384-2.764-6.739-2.764a7.564,7.564,0,0,0-6.14,2.522c-2.242-.938-3.589-2.325-3.589-3.628A2.644,2.644,0,0,1,9.8,22.652a26.446,26.446,0,0,0,9.074,1.5c1.947,0,11.655-.163,11.655-3.381s-9.707-3.383-11.655-3.383a1.024,1.024,0,0,0-.272.055A15.516,15.516,0,0,0,9.335,20.21C6.619,18.974,4.89,17.24,4.89,15.35a3.434,3.434,0,0,1,.486-1.7,35.731,35.731,0,0,0,13.5,2.293m0,11.5c2.458,0,4.015.344,4.531.691a9.227,9.227,0,0,1-4.531.889,17.669,17.669,0,0,1-3.964-.435,6.057,6.057,0,0,1,3.964-1.145m0-7.94a.971.971,0,0,0,.216-.043c4.943.022,8.069.767,9.1,1.3-1.046.545-4.243,1.31-9.316,1.31a25.668,25.668,0,0,1-7.113-.975,15.1,15.1,0,0,1,7.113-1.594m0-10.886c8.4,0,12.452,1.905,12.569,2.623-.117.724-4.164,2.63-12.569,2.63A35.217,35.217,0,0,1,6.832,12c2.457-2,6.982-3.374,12.042-3.374" transform="translate(0 0)" fill="#203444"/>
    </g>
  </g>
</svg>
