<svg xmlns="http://www.w3.org/2000/svg" width="164.808" height="129.36" viewBox="0 0 164.808 129.36">
  <g id="メールの無料アイコンその8" transform="translate(0 -55.062)">
    <path id="パス_12501" data-name="パス 12501" d="M164.383,73.478a22.8,22.8,0,0,0-4.72-10,19.651,19.651,0,0,0-1.552-1.721,22.811,22.811,0,0,0-16.163-6.7H22.861A22.842,22.842,0,0,0,6.7,61.762a20.073,20.073,0,0,0-1.552,1.721,22.527,22.527,0,0,0-4.7,10A22.11,22.11,0,0,0,0,77.924v83.638a22.73,22.73,0,0,0,1.894,9.078,22.407,22.407,0,0,0,4.8,7.082c.512.511,1.02.98,1.575,1.447a22.84,22.84,0,0,0,14.588,5.253H141.947a22.7,22.7,0,0,0,14.589-5.274,19.741,19.741,0,0,0,1.574-1.426,22.877,22.877,0,0,0,4.826-7.082v-.021a22.62,22.62,0,0,0,1.871-9.057V77.924A23.493,23.493,0,0,0,164.383,73.478ZM14.971,70.033a11.043,11.043,0,0,1,7.89-3.275H141.947a10.985,10.985,0,0,1,8.892,4.446L88.422,125.6a9.161,9.161,0,0,1-12.036,0L13.993,71.18A8.438,8.438,0,0,1,14.971,70.033ZM11.7,161.562V83.283l45.169,39.4L11.718,162.05A3.339,3.339,0,0,1,11.7,161.562Zm130.252,11.162H22.861a11.012,11.012,0,0,1-5.528-1.465l47.633-41.511,4.447,3.868a19.79,19.79,0,0,0,26.006,0l4.445-3.868,47.614,41.511A11.026,11.026,0,0,1,141.947,172.724Zm11.165-11.162a3.486,3.486,0,0,1-.022.488l-45.146-39.34L153.113,83.3Z" transform="translate(0)" fill="#00a5e3"/>
  </g>
</svg>
